# File created by Blade
# Date/Time:  Mon Sep 22 16:45:27 2014
# Frame Rate: 120.000 fps
#------------------------------------------------------
:FULLY-SPECIFIED
:DEGREES
3915
root 4.881456 39.915300 0.323229 42.978851 24.329786 58.310263
RightUpLeg -6.956261 -21.508496 -44.711116
RightLeg 14.556248 -0.000000 -0.000000
RightFoot -22.461723 -17.295933 19.730340
RightToeBase 6.004996 -0.000000 -0.000000
LeftUpLeg -7.770302 14.781762 17.993213
LeftLeg 121.574095 -0.000000 -0.000000
LeftFoot 34.659097 8.882004 -29.467365
LeftToeBase -4.829058 -0.000000 0.000000
Spine 8.652430 -7.029283 -17.978607
RightShoulder -7.868628 -12.401486 -26.677200
RightArm -17.386389 64.839414 39.120616
RightForeArm -18.625798 -0.000000 138.077094
RightHand -7.347767 -0.000000 -32.506722
RightHandThumb1 -24.326973 -0.000000 -32.862282
LeftShoulder -31.317221 29.910863 -15.381096
LeftArm 24.386436 -7.371969 -62.217767
LeftForeArm 39.213813 0.000000 99.048112
LeftHand -12.184664 -0.000000 -5.287644
LeftHandThumb1 -26.253704 0.000000 33.147579
Head -11.245950 -27.178378 -17.283602
3916
root 4.875750 39.930496 0.305868 43.201873 24.298652 58.499068
RightUpLeg -6.971831 -21.478098 -44.872269
RightLeg 14.483497 -0.000000 -0.000000
RightFoot -22.429390 -17.424918 19.829803
RightToeBase 5.937396 -0.000000 -0.000000
LeftUpLeg -7.799122 14.682699 17.973135
LeftLeg 121.596134 -0.000000 -0.000000
LeftFoot 34.632691 8.842964 -29.398812
LeftToeBase -4.409899 -0.000000 0.000000
Spine 8.568920 -7.111428 -18.005639
RightShoulder -7.852409 -12.538767 -26.707868
RightArm -17.200040 65.201490 39.237234
RightForeArm -18.471349 -0.000000 138.106774
RightHand -7.238357 -0.000000 -32.650880
RightHandThumb1 -24.326973 -0.000000 -32.862282
LeftShoulder -31.381038 30.002565 -15.426333
LeftArm 24.609742 -7.235712 -62.275463
LeftForeArm 39.309253 -0.000000 99.010393
LeftHand -12.257017 0.000000 -4.916805
LeftHandThumb1 -26.253704 0.000000 33.147579
Head -11.227924 -27.210526 -17.325280
3917
root 4.870787 39.943699 0.289841 43.390355 24.268583 58.666653
RightUpLeg -6.975192 -21.442741 -45.021151
RightLeg 14.414471 -0.000000 -0.000000
RightFoot -22.401415 -17.548507 19.889587
RightToeBase 5.961611 -0.000000 -0.000000
LeftUpLeg -7.789350 14.584500 17.975103
LeftLeg 121.602313 -0.000000 -0.000000
LeftFoot 34.599173 8.824881 -29.355422
LeftToeBase -4.282870 -0.000000 0.000000
Spine 8.515676 -7.179418 -18.019974
RightShoulder -7.826947 -12.354155 -26.801147
RightArm -17.329099 65.406262 39.101028
RightForeArm -18.453268 0.000000 138.127332
RightHand -7.278783 -0.000000 -32.280187
RightHandThumb1 -24.326973 -0.000000 -32.862282
LeftShoulder -31.344478 29.996176 -15.401910
LeftArm 24.646728 -7.107314 -62.303297
LeftForeArm 39.472502 -0.000000 99.074582
LeftHand -12.406457 -0.000000 -5.087038
LeftHandThumb1 -26.253704 0.000000 33.147579
Head -11.239624 -27.217936 -17.304338
3918
root 4.865436 39.956931 0.273517 43.561992 24.225526 58.827028
RightUpLeg -6.982779 -21.410462 -45.174612
RightLeg 14.349088 -0.000000 -0.000000
RightFoot -22.280683 -17.695229 19.858458
RightToeBase 5.745956 -0.000000 -0.000000
LeftUpLeg -7.754876 14.477545 17.950673
LeftLeg 121.581438 -0.000000 -0.000000
LeftFoot 34.602759 8.911882 -29.526068
LeftToeBase -4.513337 -0.000000 0.000000
Spine 8.487507 -7.229865 -18.049554
RightShoulder -7.812807 -12.246650 -26.884544
RightArm -17.424632 65.553070 39.005711
RightForeArm -18.440216 -0.000000 138.148768
RightHand -7.312296 0.000000 -32.169394
RightHandThumb1 -24.326973 -0.000000 -32.862282
LeftShoulder -31.288205 30.004272 -15.357960
LeftArm 24.674229 -6.998522 -62.350888
LeftForeArm 39.505606 -0.000000 99.164126
LeftHand -12.308671 -0.000000 -5.045387
LeftHandThumb1 -26.253704 0.000000 33.147579
Head -11.282898 -27.188201 -17.259550
3919
root 4.860116 39.967348 0.258727 43.704239 24.190068 58.966666
RightUpLeg -6.987994 -21.345697 -45.311357
RightLeg 14.306535 -0.000000 -0.000000
RightFoot -22.258525 -17.827101 19.938951
RightToeBase 5.677357 -0.000000 -0.000000
LeftUpLeg -7.705953 14.345752 17.928730
LeftLeg 121.555326 -0.000000 -0.000000
LeftFoot 34.577690 8.897523 -29.500534
LeftToeBase -4.426390 -0.000000 0.000000
Spine 8.477631 -7.262104 -18.061087
RightShoulder -7.792879 -12.096073 -26.988561
RightArm -17.468674 65.694983 38.961930
RightForeArm -18.438952 -0.000000 138.166111
RightHand -7.372980 -0.000000 -32.091377
RightHandThumb1 -24.326973 -0.000000 -32.862282
LeftShoulder -31.256586 30.033095 -15.339925
LeftArm 24.760643 -6.903212 -62.369654
LeftForeArm 39.595590 -0.000000 99.218548
LeftHand -12.343752 -0.000000 -5.331946
LeftHandThumb1 -26.253704 0.000000 33.147579
Head -11.318866 -27.194996 -17.219533
